<?xml version="1.0" encoding="UTF-8"?>
<svg xmlns="http://www.w3.org/2000/svg" viewBox="0 0 1269.36 531.75">
  <defs>
    <style>
      .cls-1 {
        fill: #1f40ff;
      }

      .cls-1, .cls-2 {
        stroke-width: 0px;
      }

      .cls-2 {
        fill: #ff801e;
      }
    </style>
  </defs>
  <g id="_レイヤー_1" data-name="レイヤー 1">
    <path class="cls-2" d="M29.46,497.12c23.09,15.82,49.94,22.19,77.32,25.01,22.67,2.34,46.02-.86,68.28-4.98,39.44-7.3,77.72-23.97,112.04-44.44,68.86-41.08,125.84-98.93,182.27-155.08,30.95-30.79,62.67-60.94,97.18-87.75l-10.99,8.49c28.74-22.18,59.44-41.97,92.91-56.23l-12.97,5.47c21.5-9.01,43.88-15.56,66.98-18.82l-14.43,1.94c23.02-3.07,46.07-2.51,69.07.46l-14.43-1.94c31.58,4.27,62.4,12.44,93.4,19.61,34.56,8,69.92,14.59,105.47,15.29,34.16.68,68.83-3.87,102.05-11.6,33.07-7.69,64.58-19.77,95.72-33.14s63.05-30.39,93.05-48.38c11.79-7.07,21.28-19.13,24.95-32.44s1.96-30.3-5.47-41.83c-7.47-11.59-18.6-21.8-32.44-24.95s-29.1-2.16-41.83,5.47c-31.18,18.7-63.32,35.8-96.82,49.99l12.97-5.47c-36.74,15.41-74.99,27.15-114.52,32.63l14.43-1.94c-29.6,3.93-59.37,4.12-88.98.19l14.43,1.94c-52.2-7.24-102.48-24-154.76-31.03-25.51-3.43-50.69-4.78-76.28-1.43s-49.92,8.32-73.92,17.71c-23.91,9.36-47.01,20.26-68.89,33.74-22.57,13.91-43.76,29.97-64.41,46.55-35.3,28.33-67.61,60.08-99.59,92.03-35.62,35.6-71.64,71.02-111.48,101.95l10.99-8.49c-28.33,21.84-58.58,41.28-91.58,55.3l12.97-5.47c-21.92,9.16-44.76,15.73-68.32,18.94l14.43-1.94c-15.34,1.98-30.74,2.54-46.11.52l14.43,1.94c-9.89-1.44-19.47-3.94-28.7-7.81l12.97,5.47c-5.83-2.58-11.33-5.63-16.59-9.23-11.13-7.63-29.21-8.95-41.83-5.47-12.59,3.47-26.24,13.2-32.44,24.95-6.66,12.6-9.99,27.86-5.47,41.83,4.53,14,12.77,24.1,24.95,32.44h0Z"/>
  </g>
  <g id="mask">
    <path class="cls-1" d="M48.24,516.69c22.64,9.18,47.28,13,71.54,14.63,24.42,1.63,49.4-1.5,73.31-6.21,24.16-4.76,46.7-13.73,69.22-23.52,17.69-7.69,34.63-16.97,50.91-27.3,37.81-23.99,72.86-52.67,106.83-81.77,30.51-26.14,59.54-53.8,87.65-82.49,28.28-28.85,56.39-58.1,88.42-82.87-4.45,3.44-8.91,6.88-13.36,10.32,19.78-15.14,40.93-28.34,63.9-38.08l-15.77,6.65c20.26-8.4,41.47-13.83,63.19-16.78-5.85.79-11.7,1.57-17.55,2.36,42.82-5.53,86.01-1.61,128.59,4.11l-17.55-2.36c58.29,7.91,116.62,19.53,175.61,20.22,32.2.37,64.98-3.01,96.32-10.42s62.74-20.4,92.38-34.37c29.16-13.74,57.07-29.93,84.91-46.13,14.32-8.33,25.93-23.48,30.33-39.44,4.35-15.8,2.39-36.84-6.65-50.86s-22.61-26.5-39.44-30.33c-17.35-3.95-35.18-2.46-50.86,6.65-33.74,19.63-67.63,39.18-103.6,54.5l15.77-6.65c-27.39,11.53-55.79,20.31-85.27,24.44,5.85-.79,11.7-1.57,17.55-2.36-44.05,5.88-88.5,2.07-132.34-3.78l17.55,2.36c-47.78-6.44-95.37-15.15-143.49-18.81-20.99-1.6-42.1-2.08-63.11-.49-25.61,1.94-51.69,5.57-76.3,13.19-49.4,15.3-91.43,42.77-130.53,75.99-31.36,26.64-59.26,56.99-88.3,86.06-37.42,37.45-77.28,72.61-119.12,105.05,4.45-3.44,8.91-6.88,13.36-10.32-30.59,23.61-62.87,45.23-98.49,60.51l15.77-6.65c-21.03,8.86-42.89,15.23-65.5,18.38l17.55-2.36c-17.87,2.33-35.85,2.63-53.74.38,5.85.79,11.7,1.57,17.55,2.36-14.49-1.98-28.58-5.61-42.13-11.1-8.77-2.75-17.55-3.14-26.32-1.18-8.78.4-16.96,3.01-24.54,7.83-13.69,8.01-26.75,23.71-30.33,39.44-3.85,16.9-3.02,35.86,6.65,50.86,3.44,4.45,6.88,8.91,10.32,13.36,8.24,8.18,17.94,13.84,29.12,16.97h0Z"/>
  </g>
</svg>